<svg width="350" height="50" viewBox="0 0 350 50" fill="none" xmlns="http://www.w3.org/2000/svg">
<rect width="350" height="50" rx="5" fill="#65895F"/>
<path fill-rule="evenodd" clip-rule="evenodd" d="M131.348 24.2C131.348 21.1072 133.855 18.6 136.948 18.6C140.04 18.6 142.548 21.1072 142.548 24.2C142.548 27.2928 140.04 29.8 136.948 29.8C133.855 29.8 131.348 27.2928 131.348 24.2ZM136.948 17C132.971 17 129.748 20.2236 129.748 24.2C129.748 28.1764 132.971 31.4 136.948 31.4C139.209 31.4 141.228 30.357 142.548 28.7258C142.549 28.9286 142.627 29.1309 142.782 29.2857L146.262 32.7657C146.574 33.0781 147.081 33.0781 147.393 32.7657C147.706 32.4532 147.706 31.9467 147.393 31.6343L143.913 28.1543C143.69 27.9308 143.367 27.8672 143.087 27.9635C143.76 26.8684 144.148 25.5795 144.148 24.2C144.148 20.2236 140.924 17 136.948 17Z" fill="white"/>
<path d="M178.156 19.584H174.892V21.152H176.524V22.144H174.956V23.68H176.524V24.688H174.892V26.272H178.156V19.584ZM172.252 24.672H170.732V23.68H172.172V22.144H170.732V20.928C171.324 20.736 171.996 20.496 172.636 20.24L171.484 18.864C170.876 19.264 169.804 19.84 169.084 20.096V26.24H172.252V24.672ZM168.844 26.848L168.524 25.168L167.468 25.52V23.232H168.588V21.472H167.468V18.48H165.724V21.472H164.172V23.232H165.724V26.096C165.052 26.304 164.46 26.48 163.948 26.624L164.396 28.432L165.724 27.968V31.2C165.724 31.408 165.66 31.456 165.468 31.456C165.276 31.472 164.748 31.472 164.172 31.44C164.412 31.968 164.62 32.736 164.668 33.216C165.66 33.216 166.364 33.152 166.828 32.848C167.324 32.56 167.468 32.08 167.468 31.2V27.36L168.844 26.848ZM175.372 28.624C174.892 29.184 174.316 29.632 173.644 30.032C172.956 29.632 172.364 29.168 171.932 28.624H175.372ZM176.876 26.96L176.556 27.04H174.444V18.48H172.652V27.04H168.908V28.624H170.716L170.028 28.864C170.54 29.616 171.164 30.288 171.868 30.864C170.716 31.28 169.404 31.568 167.996 31.728C168.3 32.16 168.684 32.928 168.828 33.408C170.588 33.12 172.204 32.688 173.612 32.016C174.86 32.656 176.3 33.12 177.932 33.392C178.188 32.88 178.7 32.112 179.1 31.712C177.772 31.552 176.556 31.264 175.484 30.88C176.604 30.016 177.484 28.912 178.076 27.504L176.876 26.96ZM219.764 22.816H211.156V24.064H221.636V22.336H223.748V20.88H221.636V19.184H211.236V20.416H219.764V21.024H209.332V22.224H219.764V22.816ZM209.604 28.48C211.348 28.384 213.764 28.24 216.068 28.08L216.084 26.752L213.636 26.864V25.904H215.844V24.592H209.764V25.904H211.844V26.944C210.964 26.992 210.164 27.024 209.508 27.04L209.604 28.48ZM218.42 25.808H221.108V26.896H218.42V25.808ZM223.78 28.832H220.644V28.112H222.996V24.592H216.66V28.112H218.772V28.832H209.236V30.368H212.548L211.924 30.896C212.708 31.44 213.668 32.256 214.1 32.816L215.46 31.648C215.14 31.264 214.58 30.784 214.004 30.368H218.772V31.616C218.772 31.824 218.692 31.888 218.436 31.888C218.196 31.888 217.268 31.904 216.484 31.856C216.708 32.288 216.98 32.928 217.092 33.408C218.308 33.408 219.156 33.392 219.812 33.168C220.452 32.928 220.644 32.544 220.644 31.68V30.368H223.78V28.832Z" fill="white"/>
</svg>
